<svg width="24" height="24"  viewBox="0 0 24 24" xmlns="http://www.w3.org/2000/svg">
<title>unknown</title>
<path d="M18.53909,14.8462a1.00034,1.00034,0,0,1-.5918-1.8071,5.00011,5.00011,0,1,0-6.1758-.2212,1.00018,1.00018,0,0,1-1.293,1.5263,6.99985,6.99985,0,1,1,8.6504.3091A.996.996,0,0,1,18.53909,14.8462Z" style="fill:#333"/>
<path d="M9,22A7.00034,7.00034,0,0,1,5.02049,9.2407a1.00017,1.00017,0,0,1,1.1387,1.6446,5.00073,5.00073,0,1,0,6.1679.3833,1.00014,1.00014,0,0,1,1.3321-1.4922A6.99961,6.99961,0,0,1,9,22Z" style="fill:#333"/>
</svg>